<svg width="760" height="198" viewBox="0 0 760 198" fill="none" xmlns="http://www.w3.org/2000/svg">
<path fill-rule="evenodd" clip-rule="evenodd" d="M45.2522 145.573C45.7823 145.668 46.0517 146.552 46.0517 148.173C46.1014 149.256 45.9208 150.337 45.5216 151.345C45.2965 151.748 44.9778 152.091 44.5922 152.346C44.2066 152.601 43.7654 152.76 43.3056 152.81C42.7407 152.81 42.0628 152.307 41.2633 151.319C40.6799 150.609 40.3175 149.744 40.2205 148.831C40.2205 148.138 40.7332 147.419 41.7674 146.673C42.5862 146.006 43.5964 145.614 44.6525 145.555H45.2522V145.573Z" fill="black"/>
<path fill-rule="evenodd" clip-rule="evenodd" d="M283.27 145.573C283.8 145.668 284.069 146.552 284.069 148.173C284.123 149.256 283.942 150.338 283.539 151.345C283.314 151.748 282.995 152.091 282.61 152.346C282.224 152.601 281.783 152.76 281.323 152.81C280.758 152.81 280.08 152.307 279.281 151.319C278.697 150.609 278.335 149.744 278.238 148.831C278.238 148.138 278.751 147.419 279.785 146.673C280.604 146.006 281.614 145.614 282.67 145.555H283.27V145.573Z" fill="black"/>
<path fill-rule="evenodd" clip-rule="evenodd" d="M723.423 145.573C723.953 145.668 724.213 146.552 724.213 148.173C724.266 149.255 724.088 150.336 723.692 151.345C723.467 151.748 723.148 152.091 722.763 152.346C722.377 152.601 721.936 152.76 721.476 152.81C720.911 152.81 720.233 152.307 719.434 151.319C718.85 150.609 718.488 149.744 718.391 148.831C718.391 148.138 718.904 147.419 719.929 146.673C720.752 146.006 721.764 145.615 722.823 145.555H723.423V145.573Z" fill="black"/>
<path fill-rule="evenodd" clip-rule="evenodd" d="M526.015 155.644C526.343 155.501 526.699 155.433 527.057 155.445C527.714 155.426 528.353 155.655 528.848 156.086C529.095 156.3 529.29 156.568 529.42 156.868C529.549 157.168 529.609 157.493 529.595 157.819C529.601 158.017 529.584 158.215 529.543 158.409C529.333 159.628 529.194 160.857 529.126 162.092C529.039 163.444 528.995 164.889 528.995 166.426V169.208C528.978 171.439 529.08 173.67 529.3 175.89C529.502 177.728 529.833 180.137 530.29 183.119C530.371 183.478 530.362 183.852 530.263 184.207C530.165 184.563 529.98 184.888 529.725 185.155C529.477 185.411 529.178 185.613 528.847 185.749C528.517 185.884 528.162 185.951 527.805 185.944C527.248 185.958 526.703 185.783 526.258 185.45C525.785 185.062 525.475 184.512 525.389 183.907C524.954 181.325 524.613 178.892 524.364 176.61C524.109 174.151 523.984 171.68 523.99 169.208V165.334C523.625 166.2 523.277 167.188 522.947 168.211C522.512 169.607 522.182 170.647 521.948 171.34C520.887 174.555 520.21 176.393 520.062 176.852C519.61 177.951 519.075 179.014 518.463 180.033C517.802 180.83 517.324 181.429 517.046 181.827C516.786 182.16 516.608 182.549 516.525 182.963C516.473 183.446 516.273 183.902 515.95 184.266C515.628 184.631 515.2 184.887 514.726 184.999C514.3 185.288 513.798 185.445 513.283 185.45C512.898 185.454 512.517 185.36 512.178 185.176C511.839 184.993 511.553 184.726 511.346 184.401C511.041 184.037 510.364 182.997 509.303 181.273C508.712 180.287 507.99 179.387 507.157 178.594C506.559 177.939 506.056 177.204 505.662 176.41C504.868 174.92 504.089 173.429 503.324 171.938C502.753 171.07 502.253 170.157 501.83 169.208C501.63 168.74 501.195 167.734 500.535 166.174L500.587 169.641C500.587 172.374 500.561 174.35 500.509 175.57C500.457 176.8 500.335 178.395 500.135 180.345V182.945C500.161 183.289 500.113 183.634 499.993 183.957C499.873 184.28 499.684 184.574 499.44 184.817C498.943 185.23 498.318 185.456 497.671 185.456C497.025 185.456 496.4 185.23 495.903 184.817C495.649 184.586 495.45 184.301 495.32 183.983C495.191 183.665 495.135 183.322 495.156 182.98V180.146C495.321 178.716 495.442 177.052 495.503 175.171C495.564 173.29 495.608 171.453 495.608 169.693C495.608 167.076 495.55 165.212 495.434 164.103C495.22 162.601 494.859 161.123 494.356 159.691C494.222 159.275 494.19 158.832 494.261 158.4L493.392 157.958C492.999 157.724 492.669 157.4 492.427 157.013C492.208 156.65 492.094 156.233 492.097 155.809C492.103 155.158 492.365 154.535 492.827 154.075C493.043 153.829 493.311 153.632 493.611 153.499C493.911 153.366 494.236 153.299 494.565 153.304C495.042 153.314 495.507 153.451 495.912 153.702L499.301 155.592C500.446 156.201 501.434 157.068 502.186 158.123C503.924 161.832 505.685 165.524 507.47 169.199C508.055 170.18 508.555 171.21 508.964 172.276C509.306 173.278 509.847 174.201 510.555 174.989C511.104 175.486 511.604 176.035 512.049 176.627C512.548 177.272 513.013 177.943 513.44 178.638L514.187 177.494C514.865 176.284 515.446 175.024 515.925 173.723C516.125 173.195 516.568 171.886 517.272 169.797C518.367 166.417 519.146 164.149 519.61 162.994C520.49 160.739 521.59 158.576 522.895 156.537C523.102 156.193 523.393 155.907 523.741 155.707C524.089 155.507 524.483 155.399 524.885 155.393C525.275 155.396 525.66 155.481 526.015 155.644Z" fill="black"/>
<path fill-rule="evenodd" clip-rule="evenodd" d="M441.641 155.106C442.371 155.973 443.379 157.421 444.726 159.371L447.568 163.748C448.263 162.95 449.468 161.766 451.183 160.194C452.402 159.013 453.709 157.927 455.093 156.944C455.607 156.602 456.214 156.427 456.832 156.441C457.189 156.434 457.543 156.508 457.867 156.658C458.191 156.808 458.476 157.031 458.7 157.308C459.15 157.796 459.407 158.43 459.421 159.093C459.439 159.275 459.417 159.458 459.357 159.63C459.297 159.802 459.201 159.959 459.074 160.09C455.93 162.467 453.004 165.118 450.331 168.012L453.373 172.675C455.065 175.292 456.325 177.346 457.153 178.837L457.257 179.53C457.231 179.824 457.131 180.106 456.965 180.351C456.799 180.595 456.574 180.793 456.31 180.926C455.664 181.282 454.951 181.501 454.216 181.567C453.893 181.563 453.575 181.482 453.29 181.331C453.004 181.18 452.759 180.964 452.573 180.7L449.462 175.908C448.686 174.509 447.815 173.166 446.855 171.886L443.718 176.506L440.529 181.168L440.033 181.368C439.305 181.285 438.62 180.983 438.069 180.501C437.75 180.326 437.477 180.077 437.273 179.776C437.068 179.474 436.939 179.129 436.896 178.768L437.192 177.901C437.794 176.738 438.461 175.609 439.19 174.521L441.18 171.695L444.118 167.821C441.766 164.175 439.758 161.26 438.095 159.076C437.826 158.628 437.624 158.144 437.496 157.637C437.507 157.251 437.602 156.872 437.772 156.525C437.943 156.178 438.187 155.872 438.486 155.626C439.023 155.069 439.755 154.74 440.529 154.708C441.093 154.699 441.476 154.829 441.641 155.106Z" fill="black"/>
<path fill-rule="evenodd" clip-rule="evenodd" d="M416.491 157.707C416.396 158.435 416.283 159.483 416.17 160.835C416.057 162.187 415.996 163.505 415.996 164.762C415.94 168.178 416.35 171.587 417.213 174.893C418.03 177.783 419.151 179.357 420.576 179.617C420.89 179.65 421.207 179.665 421.523 179.66C422.306 179.661 423.077 179.472 423.77 179.11C424.464 178.748 425.058 178.223 425.503 177.58C426.699 176.059 427.585 174.319 428.11 172.458L428.562 168.237C428.562 167.509 428.562 167.015 428.562 166.746C428.562 166.478 428.745 165.637 429.014 164.216C429.11 163.748 429.796 163.522 431.056 163.522C431.762 163.506 432.467 163.587 433.151 163.765C433.715 163.938 434.02 164.198 434.02 164.562L433.22 172.657L432.777 179.513C432.777 180.744 432.777 181.862 432.899 182.893C433.02 183.925 433.09 184.965 433.22 186.022C433.22 186.351 432.612 186.516 431.378 186.516C429.64 186.516 428.71 186.351 428.588 186.022C428.187 184.399 428.02 182.726 428.093 181.056C427.238 182.265 426.114 183.259 424.808 183.959C423.732 184.513 422.542 184.809 421.332 184.826H419.994C413.742 184.063 410.62 177.754 410.625 165.897C410.623 164.024 410.724 162.152 410.93 160.289L411.225 157.689C411.625 156.528 412.633 155.956 414.267 155.956C415.779 155.886 416.491 156.502 416.491 157.707Z" fill="black"/>
<path fill-rule="evenodd" clip-rule="evenodd" d="M397.121 167.561C397.121 166.634 397.121 165.966 397.164 165.568C397.208 165.169 397.321 164.164 397.512 162.578C397.607 161.654 397.755 160.737 397.955 159.83C398.19 158.738 398.39 157.767 398.555 156.935C398.64 156.267 398.964 155.652 399.467 155.202C399.91 154.855 400.46 154.672 401.023 154.682C401.666 154.677 402.287 154.916 402.761 155.349C403.006 155.566 403.202 155.833 403.334 156.132C403.466 156.432 403.531 156.756 403.525 157.083C403.532 157.28 403.514 157.478 403.473 157.672C403.178 159.076 402.995 159.969 402.926 160.376C402.735 161.434 402.578 162.37 402.483 163.193C402.387 164.016 402.3 164.805 402.231 165.611C402.161 166.417 402.135 167.24 402.135 168.098L402.778 168.298C403.304 168.43 403.77 168.737 404.097 169.169C404.424 169.601 404.593 170.132 404.577 170.673C404.58 171.008 404.516 171.34 404.387 171.65C404.259 171.96 404.069 172.24 403.83 172.475C403.588 172.727 403.292 172.92 402.963 173.037C402.634 173.155 402.282 173.194 401.935 173.151C401.935 174.243 401.874 175.44 401.761 176.766C401.648 178.092 401.483 179.461 401.283 180.874V182.061C401.312 182.402 401.264 182.746 401.144 183.066C401.024 183.387 400.834 183.677 400.588 183.916C400.092 184.328 399.466 184.554 398.82 184.554C398.173 184.554 397.548 184.328 397.051 183.916C396.797 183.687 396.597 183.403 396.468 183.087C396.338 182.77 396.282 182.428 396.304 182.087V180.709C396.443 179.617 396.599 178.421 396.738 177.121C396.891 175.6 396.964 174.073 396.956 172.545H395.548L394.757 172.38C394.264 172.253 393.761 172.169 393.254 172.129C392.619 172.077 391.924 172.051 391.151 172.051L383.955 172.744C383.959 175.726 383.692 178.703 383.156 181.636C383.056 182.229 382.748 182.767 382.287 183.153C381.848 183.502 381.3 183.686 380.74 183.673C380.097 183.669 379.478 183.429 379.002 182.997C378.751 182.784 378.551 182.518 378.417 182.218C378.283 181.918 378.219 181.592 378.228 181.264C378.22 181.097 378.238 180.931 378.28 180.77C378.554 179.207 378.743 177.63 378.845 176.046C378.932 174.659 378.976 172.756 378.976 170.335V168.645C378.976 166.2 378.923 164.406 378.828 163.28C378.662 161.79 378.394 160.313 378.028 158.859C377.973 158.632 377.938 158.4 377.924 158.166C377.908 157.839 377.967 157.514 378.097 157.213C378.226 156.913 378.423 156.646 378.671 156.433C379.172 156.006 379.812 155.778 380.47 155.791C380.994 155.779 381.509 155.934 381.939 156.233C382.385 156.581 382.693 157.075 382.808 157.629C383.244 159.187 383.552 160.779 383.729 162.387C383.877 163.826 383.955 165.62 383.955 167.734L390.725 167.084C391.967 167.084 392.923 167.084 393.619 167.162C394.374 167.226 395.121 167.36 395.852 167.561H397.121Z" fill="black"/>
<path fill-rule="evenodd" clip-rule="evenodd" d="M347.665 168.679V164.25L347.413 157.377C347.392 157.021 347.451 156.665 347.585 156.333C347.719 156.002 347.924 155.705 348.186 155.462C348.688 155.023 349.335 154.785 350.002 154.795C350.617 154.787 351.212 155.01 351.671 155.419C351.91 155.638 352.099 155.906 352.223 156.206C352.348 156.505 352.406 156.828 352.392 157.152L352.644 164.086V165.732C354.726 164.927 356.937 164.504 359.17 164.484C362.353 164.359 365.47 165.405 367.93 167.423C369.174 168.488 370.156 169.823 370.804 171.325C371.452 172.827 371.747 174.457 371.667 176.09C371.67 177.537 371.37 178.969 370.787 180.295C370.203 181.62 369.349 182.809 368.278 183.786C367.261 184.827 366.044 185.653 364.701 186.216C363.357 186.779 361.914 187.067 360.457 187.062C358.311 187.107 356.177 186.736 354.174 185.97C352.338 185.206 350.765 183.926 349.646 182.287C348.885 181.029 348.407 179.621 348.247 178.161C347.986 175.942 347.804 174.365 347.699 173.429C347.254 173.209 346.87 172.885 346.578 172.484C346.301 172.091 346.155 171.621 346.161 171.141C346.175 170.575 346.387 170.032 346.761 169.607L347.63 168.662L347.665 168.679ZM352.644 171.089V172.441C352.74 174.036 352.827 175.414 352.887 176.592C352.908 177.591 353.209 178.564 353.756 179.4C354.407 180.383 355.372 181.116 356.494 181.481C357.781 181.898 359.129 182.1 360.483 182.079C362.104 182.095 363.665 181.472 364.828 180.345C365.423 179.809 365.897 179.154 366.219 178.422C366.541 177.69 366.704 176.898 366.696 176.098C366.749 175.17 366.581 174.242 366.205 173.39C365.828 172.539 365.255 171.789 364.532 171.201C363.003 170.023 361.111 169.411 359.179 169.468C358.031 169.462 356.885 169.585 355.764 169.832C354.668 170.097 353.617 170.521 352.644 171.089Z" fill="black"/>
<path fill-rule="evenodd" clip-rule="evenodd" d="M335.064 158.027C335.317 158.256 335.533 158.522 335.707 158.816C337.454 162.349 338.68 166.114 339.348 169.997C339.974 173.273 340.443 175.76 340.738 177.442C340.978 178.475 341.295 179.489 341.686 180.475C342.285 181.871 342.711 182.859 342.98 183.457C343.128 183.803 343.213 184.173 343.232 184.549C343.236 184.879 343.166 185.205 343.027 185.505C342.889 185.804 342.686 186.07 342.433 186.282C341.926 186.733 341.27 186.98 340.591 186.975C340.14 186.977 339.699 186.848 339.322 186.603C338.908 186.313 338.588 185.909 338.401 185.441C337.532 183.422 337.054 182.261 336.949 181.975C336.474 180.803 336.107 179.59 335.854 178.352C335.394 175.795 334.985 173.247 334.516 170.699C334.067 168.255 333.383 165.861 332.474 163.548C331.266 165.553 330.248 167.665 329.432 169.858C329.054 170.944 328.786 172.064 328.633 173.203C328.407 174.677 328.242 175.596 328.137 175.968C327.675 177.937 327.095 179.876 326.399 181.775C325.691 183.699 324.858 185.575 323.905 187.391C323.721 187.8 323.42 188.145 323.04 188.383C322.659 188.62 322.216 188.74 321.768 188.726C321.107 188.726 320.469 188.482 319.977 188.042C319.727 187.829 319.528 187.562 319.396 187.262C319.264 186.962 319.201 186.636 319.213 186.308C319.223 185.872 319.342 185.446 319.56 185.069C320.389 183.43 321.103 181.735 321.698 179.998C322.277 178.34 322.825 176.587 323.34 174.738C323.81 172.519 324.291 170.283 324.783 168.029C325.548 166.153 326.418 164.321 327.39 162.543C328.375 160.724 329.457 158.959 330.632 157.256C330.838 156.912 331.129 156.626 331.477 156.426C331.826 156.225 332.22 156.117 332.622 156.112C333.181 156.111 333.724 156.293 334.168 156.632C334.611 156.987 334.926 157.477 335.064 158.027Z" fill="black"/>
<path fill-rule="evenodd" clip-rule="evenodd" d="M315.632 184.575C314.989 185.151 314.15 185.461 313.286 185.441C312.791 185.463 312.303 185.323 311.895 185.043C311.459 184.685 311.115 184.227 310.896 183.708L310.296 182.261C307.608 184.843 304.008 186.135 299.494 186.135C297.243 186.184 295.017 185.646 293.038 184.575C291.019 183.164 289.352 181.311 288.162 179.158C287.513 178.01 286.955 176.813 286.494 175.578C286.131 174.628 285.937 173.622 285.92 172.605C285.939 171.899 286.108 171.205 286.416 170.569C286.933 169.611 287.375 168.614 287.736 167.587C288.15 166.421 288.72 165.316 289.431 164.302C290.377 163.151 291.537 162.191 292.846 161.477C294.919 160.288 297.278 159.689 299.668 159.743H301.111C301.552 159.287 302.127 158.984 302.753 158.877C303.883 158.781 305.36 159.388 307.237 160.714L307.637 159.076C307.683 158.805 307.783 158.546 307.933 158.315C308.082 158.084 308.277 157.886 308.506 157.733C309.047 157.409 309.666 157.238 310.296 157.239C311.097 157.231 311.88 157.47 312.539 157.923C312.863 158.079 313.136 158.326 313.323 158.634C313.509 158.942 313.602 159.297 313.59 159.657C313.594 160.109 313.542 160.561 313.434 161C313.338 161.407 313.251 161.728 313.19 161.954L312.791 164.155C313.025 165.745 313.409 167.309 313.938 168.827C314.5 170.424 314.834 172.093 314.928 173.784C314.859 175.06 314.711 176.331 314.485 177.589L315.354 180.189C315.516 180.713 315.649 181.246 315.754 181.784C315.852 182.327 315.901 182.878 315.902 183.431C315.945 183.831 315.85 184.235 315.632 184.575ZM308.315 176.774C308.799 175.769 309.037 174.665 309.01 173.55C308.905 171.368 308.383 169.227 307.472 167.24C307.435 167.001 307.314 166.783 307.131 166.625C306.949 166.466 306.715 166.377 306.473 166.374H305.873L304.83 166.625C303.922 166.23 303.049 165.758 302.223 165.212C301.33 164.578 300.276 164.206 299.182 164.138C297.71 164.152 296.271 164.575 295.028 165.36C293.743 166.099 292.764 167.269 292.264 168.662C292.046 169.197 291.754 169.699 291.395 170.153C291.151 170.512 290.944 170.895 290.778 171.297C290.656 171.612 290.597 171.947 290.604 172.285L290.804 173.151C292.229 178.976 295.051 181.891 299.268 181.897C301.267 181.879 303.216 181.276 304.874 180.163C306.319 179.381 307.513 178.206 308.315 176.774Z" fill="black"/>
<path fill-rule="evenodd" clip-rule="evenodd" d="M262.248 175.96C262.268 173.681 262.434 171.405 262.743 169.147L263.404 165.576L264.203 161.399C264.238 161.102 264.333 160.815 264.483 160.556C264.632 160.297 264.833 160.07 265.072 159.891C265.516 159.544 266.064 159.358 266.628 159.362C267.29 159.347 267.935 159.579 268.435 160.012C268.685 160.225 268.882 160.492 269.013 160.792C269.144 161.092 269.205 161.418 269.191 161.745C269.197 161.929 269.179 162.112 269.139 162.292L268.34 166.469L267.74 169.849C267.61 170.638 267.497 171.461 267.393 172.302C267.302 173.053 267.252 173.808 267.245 174.564C267.242 175.144 267.277 175.723 267.349 176.298C267.374 176.721 267.529 177.126 267.792 177.459C267.933 177.653 268.122 177.809 268.34 177.91C269.255 178.034 270.14 178.328 270.947 178.776C271.44 179.14 271.831 179.623 272.083 180.179C272.336 180.736 272.441 181.348 272.389 181.957C272.392 182.604 272.259 183.245 271.998 183.838C271.729 184.436 271.46 185.034 271.199 185.632L269.956 189.004C269.778 189.522 269.448 189.974 269.009 190.304C268.591 190.568 268.105 190.704 267.61 190.694C266.968 190.692 266.349 190.455 265.872 190.026C265.621 189.813 265.422 189.547 265.288 189.247C265.154 188.947 265.09 188.621 265.098 188.293C265.092 187.933 265.16 187.576 265.298 187.244L266.593 183.777C266.689 183.543 266.715 183.387 266.663 183.301C266.605 183.152 266.581 182.992 266.593 182.833C266.593 181.966 266.098 181.532 265.098 181.42C264.099 181.307 263.499 181.09 263.308 180.796C261.475 181.723 260.171 182.365 259.371 182.729C258.103 183.364 256.706 183.705 255.287 183.725C253.608 183.773 251.95 183.345 250.505 182.493C249.059 181.64 247.885 180.397 247.118 178.906C246.191 177.092 245.602 175.124 245.38 173.099C245.319 172.536 245.172 171.123 244.937 168.87C244.833 167.778 244.789 166.833 244.789 166.044C244.789 165.256 244.789 164.311 244.859 163.063C244.928 161.815 244.937 161.139 244.937 160.974V158.374C244.921 158.038 244.978 157.703 245.102 157.391C245.226 157.078 245.416 156.796 245.658 156.563C246.128 156.122 246.752 155.883 247.396 155.895C248.036 155.884 248.656 156.113 249.134 156.537C249.388 156.768 249.587 157.053 249.716 157.371C249.846 157.689 249.902 158.032 249.882 158.374V160.974C249.882 161.841 249.882 162.708 249.83 163.462C249.777 164.216 249.769 164.987 249.734 165.741C249.699 166.495 249.777 167.474 249.882 168.723C249.986 169.971 250.099 171.323 250.229 172.744C250.393 174.035 250.797 175.284 251.42 176.428C251.777 177.13 252.323 177.72 252.996 178.132C253.67 178.544 254.445 178.761 255.235 178.759C256.648 178.662 258.007 178.179 259.163 177.364C259.923 176.879 260.715 176.447 261.535 176.072L262.248 175.96Z" fill="black"/>
<path fill-rule="evenodd" clip-rule="evenodd" d="M226.392 156.433C228.961 156.697 231.372 157.793 233.257 159.553C234.203 160.377 234.975 161.382 235.526 162.508C236.055 163.651 236.319 164.898 236.299 166.157C236.401 167.31 236.714 168.435 237.22 169.477C237.727 170.518 238.039 171.643 238.141 172.796C238.114 173.37 237.973 173.934 237.725 174.453C237.477 174.972 237.128 175.437 236.699 175.821C231.351 181.374 226.123 184.15 221.013 184.15C218.151 184.15 215.619 182.812 213.417 180.137C211.311 177.674 209.938 174.671 209.455 171.47C209.445 170.366 209.538 169.263 209.733 168.177C209.929 167.155 210.253 166.162 210.697 165.221C211.657 163.279 213.129 161.634 214.956 160.463C216.762 159.281 218.879 158.66 221.039 158.677H222.134C222.287 158.291 222.516 157.939 222.807 157.642C223.098 157.344 223.445 157.107 223.828 156.944C224.229 156.75 224.657 156.615 225.097 156.545C225.534 156.474 225.976 156.439 226.418 156.441L226.392 156.433ZM230.277 164.571C229.995 163.798 229.447 163.149 228.73 162.742C228.2 162.471 227.651 162.239 227.087 162.049C226.687 161.919 226.218 161.763 225.688 161.598C225.358 163.453 223.715 164.38 220.761 164.38C217.406 164.779 215.448 166.117 214.886 168.393L214.538 170.863C214.613 172.812 215.372 174.674 216.682 176.121C217.993 177.569 219.771 178.512 221.708 178.785C223.68 178.715 225.586 178.06 227.183 176.904C228.875 175.825 230.403 174.508 231.719 172.995C232.058 172.586 232.266 172.085 232.319 171.557C232.253 170.954 232.083 170.367 231.815 169.823C231.684 169.459 231.563 169.069 231.441 168.645C231.319 168.22 231.267 167.977 231.267 167.951L230.772 166.218L230.277 164.571Z" fill="black"/>
<path fill-rule="evenodd" clip-rule="evenodd" d="M192.074 158.175C192.524 158.702 192.77 159.372 192.769 160.064C192.766 160.38 192.697 160.692 192.569 160.981C192.44 161.27 192.254 161.53 192.022 161.745C191.486 162.196 190.825 162.474 190.128 162.543C189.186 162.339 188.298 161.94 187.52 161.373C186.669 160.761 185.658 160.409 184.609 160.359C184.027 160.368 183.446 160.417 182.871 160.506L181.133 160.757C180.288 160.875 179.482 161.182 178.774 161.657C178.066 162.131 177.476 162.76 177.049 163.496C176.57 164.277 176.21 165.124 175.98 166.01C175.724 166.962 175.598 167.945 175.606 168.931L175.806 170.768C176.184 173.005 177.184 175.092 178.691 176.792C180.354 178.82 182.761 179.834 185.913 179.834C186.581 179.835 187.248 179.768 187.903 179.634C188.537 179.496 189.033 179.4 189.398 179.331C190.515 179.154 191.573 178.711 192.483 178.04L193.856 176.948C194.473 176.454 195.011 175.986 195.472 175.561C196.234 174.81 197.115 174.189 198.079 173.723L199.53 173.524C200.394 173.494 201.234 173.806 201.868 174.391C202.16 174.673 202.388 175.013 202.538 175.39C202.688 175.766 202.756 176.17 202.737 176.575C202.737 177.771 202.056 178.898 200.695 179.955L198.601 181.298L196.576 182.512L194.49 183.379C193.074 183.925 191.622 184.374 190.145 184.722C188.279 185.037 186.388 185.17 184.496 185.121C182.523 185.132 180.579 184.652 178.839 183.725C177.098 182.797 175.566 181.522 174.337 179.981C173.065 178.396 172.04 176.628 171.296 174.737C170.933 173.766 170.642 172.77 170.427 171.756C170.239 170.823 170.146 169.873 170.149 168.922C170.099 165.952 170.95 163.037 172.591 160.558C173.434 159.326 174.517 158.275 175.776 157.468C177.034 156.661 178.442 156.115 179.916 155.861C181.458 155.566 183.022 155.401 184.592 155.366C188.114 155.384 190.608 156.32 192.074 158.175Z" fill="black"/>
<path fill-rule="evenodd" clip-rule="evenodd" d="M133.007 165.03C132.572 167.11 132.138 169.217 131.781 171.331C131.401 173.515 131.212 175.728 131.216 177.944V183.509C131.242 183.852 131.192 184.196 131.071 184.518C130.949 184.84 130.759 185.131 130.512 185.372C130.013 185.778 129.388 186 128.744 186C128.1 186 127.475 185.778 126.976 185.372C126.723 185.14 126.525 184.855 126.395 184.537C126.266 184.219 126.209 183.877 126.228 183.535V179.114C125.746 179.132 125.268 179.028 124.838 178.811L123.83 178.464C122.813 180.301 121.422 181.904 119.745 183.171C117.968 184.482 115.812 185.185 113.601 185.173C112.173 185.185 110.759 184.889 109.456 184.306C109.056 184.141 108.309 183.76 107.205 183.162C106.779 182.976 106.418 182.667 106.17 182.275C105.922 181.882 105.799 181.424 105.815 180.961C105.821 180.311 106.079 179.69 106.536 179.227C106.753 178.981 107.021 178.784 107.32 178.649C107.62 178.515 107.945 178.446 108.274 178.447C108.778 178.47 109.268 178.619 109.699 178.88L111.368 179.834C112.062 180.117 112.808 180.256 113.558 180.241C114.498 180.261 115.425 180.028 116.243 179.565C117.097 179.04 117.841 178.354 118.433 177.546L116.869 177.104C116.556 177 116.095 176.818 115.496 176.558C114.069 175.83 112.788 174.849 111.715 173.663C110.903 172.814 110.32 171.773 110.021 170.638C109.69 169.253 109.538 167.832 109.569 166.408C109.58 165.042 109.904 163.696 110.516 162.474C111.136 161.192 111.998 160.042 113.054 159.085C113.744 158.426 114.504 157.845 115.322 157.351C116.507 156.786 117.752 156.353 119.033 156.06C120.171 155.784 121.337 155.635 122.509 155.618C123.074 155.618 123.517 155.618 123.847 155.661C124.177 155.705 125.012 155.835 126.341 156.06C127.669 156.294 128.971 156.659 130.226 157.152C131.349 157.577 132.406 158.16 133.363 158.885L135.657 160.87C135.948 161.093 136.184 161.379 136.349 161.706C136.513 162.034 136.6 162.394 136.604 162.76C136.587 163.427 136.312 164.062 135.838 164.533C135.364 165.004 134.727 165.275 134.058 165.29C133.698 165.277 133.344 165.195 133.015 165.048L133.007 165.03ZM126.48 174.114C126.642 172.224 126.892 170.329 127.228 168.428C127.758 165.828 128.175 163.808 128.47 162.257L128.627 161.806C128.149 161.571 127.648 161.385 127.132 161.252C126.531 161.088 125.922 160.955 125.307 160.853L123.795 160.627C123.397 160.583 122.996 160.56 122.596 160.558C121.808 160.572 121.024 160.671 120.258 160.853L118.711 161.2C117.871 161.525 117.108 162.021 116.469 162.656C115.928 163.16 115.467 163.745 115.105 164.389C114.758 164.971 114.575 165.636 114.575 166.313V167.457C114.549 168.04 114.607 168.624 114.748 169.191C114.9 169.568 115.131 169.908 115.426 170.187C116.079 170.947 116.873 171.573 117.764 172.033C118.337 172.291 118.938 172.483 119.554 172.605L121.926 173.082L124.412 173.559C125.116 173.684 125.808 173.869 126.48 174.114Z" fill="black"/>
<path fill-rule="evenodd" clip-rule="evenodd" d="M80.5608 155.635C81.0324 155.455 81.5434 155.402 82.0422 155.481C82.541 155.56 83.0102 155.769 83.4025 156.086C83.6481 156.302 83.8426 156.569 83.9718 156.869C84.1011 157.168 84.1619 157.493 84.1499 157.819C84.1561 158.017 84.1386 158.215 84.0977 158.409C83.8851 159.627 83.743 160.857 83.6719 162.092C83.5937 163.444 83.5502 164.9 83.5502 166.426V169.208C83.5308 171.439 83.6294 173.669 83.8457 175.89C84.0427 177.728 84.3758 180.137 84.8451 183.119C84.9224 183.479 84.9106 183.853 84.8106 184.208C84.7107 184.562 84.5257 184.888 84.2715 185.155C84.0227 185.411 83.7238 185.613 83.3934 185.749C83.063 185.884 82.7082 185.951 82.351 185.944C81.7675 185.972 81.1954 185.777 80.7513 185.398C80.3073 185.02 80.0247 184.486 79.9611 183.907C79.5324 181.324 79.1935 178.892 78.9444 176.61C78.6851 174.151 78.5604 171.68 78.5707 169.208V165.334C78.2057 166.2 77.8581 167.188 77.5192 168.211C77.0934 169.607 76.7631 170.647 76.5285 171.34C75.4683 174.558 74.8368 176.396 74.634 176.852C74.1846 177.951 73.6531 179.014 73.0437 180.033C72.3746 180.83 71.9053 181.429 71.6185 181.819C71.3663 182.159 71.1887 182.549 71.0971 182.963C71.0473 183.445 70.8482 183.901 70.5275 184.266C70.2067 184.63 69.7802 184.887 69.3069 184.999C68.8812 185.288 68.3792 185.445 67.8643 185.45C67.4772 185.455 67.0953 185.361 66.7547 185.177C66.4141 184.994 66.126 184.727 65.9177 184.401C65.6222 184.037 64.9357 182.997 63.8755 181.272C63.2898 180.286 62.5704 179.385 61.7377 178.594C61.1375 177.941 60.6341 177.206 60.2429 176.41C59.4434 174.92 58.6613 173.429 57.8966 171.938C57.3276 171.07 56.8306 170.157 56.4106 169.208C56.2107 168.74 55.7762 167.734 55.1157 166.174L55.1592 169.641C55.1592 172.374 55.136 174.35 55.0896 175.57C55.0375 176.8 54.9158 178.395 54.7159 180.345V182.945C54.7421 183.29 54.6927 183.635 54.5712 183.959C54.4496 184.282 54.2588 184.575 54.012 184.817C53.5169 185.229 52.8926 185.455 52.2479 185.455C51.6032 185.455 50.979 185.229 50.4838 184.817C50.228 184.587 50.0279 184.303 49.8984 183.984C49.7689 183.666 49.7136 183.323 49.7364 182.98V180.146C49.9015 178.716 50.0145 177.052 50.084 175.171C50.1536 173.29 50.1796 171.453 50.1796 169.693C50.1796 167.076 50.1217 165.212 50.0058 164.103C49.7998 162.6 49.4416 161.122 48.9369 159.691C48.8045 159.274 48.7688 158.833 48.8326 158.4L47.9636 157.958C47.5672 157.726 47.2331 157.402 46.9903 157.013C46.7738 156.649 46.6625 156.232 46.6688 155.809C46.6758 155.16 46.9342 154.538 47.3901 154.075C47.6069 153.829 47.8744 153.633 48.1744 153.5C48.4744 153.367 48.7998 153.3 49.1281 153.304C49.6044 153.316 50.069 153.454 50.4751 153.702L53.8556 155.592C55.0028 156.202 55.9932 157.068 56.7495 158.123C58.4875 161.832 60.2458 165.524 62.0245 169.199C62.6138 170.178 63.114 171.208 63.5192 172.276C63.8644 173.276 64.405 174.198 65.1095 174.989C65.6609 175.484 66.1616 176.033 66.6042 176.627C67.1059 177.272 67.573 177.943 68.0034 178.638L68.7507 177.494C69.4315 176.286 70.0128 175.025 70.4888 173.723C70.6915 173.198 71.1405 171.889 71.8358 169.797C72.9307 166.417 73.7099 164.149 74.1734 162.994C75.0524 160.737 76.1558 158.574 77.467 156.537C77.6732 156.192 77.9644 155.906 78.3127 155.706C78.6611 155.506 79.0551 155.398 79.4571 155.393C79.8374 155.4 80.2125 155.483 80.5608 155.635Z" fill="black"/>
<path fill-rule="evenodd" clip-rule="evenodd" d="M21.945 158.175C22.3945 158.702 22.641 159.372 22.6402 160.064C22.6364 160.38 22.5683 160.692 22.4398 160.981C22.3113 161.27 22.1252 161.53 21.8928 161.745C21.3564 162.196 20.696 162.474 19.9983 162.543C19.0569 162.339 18.1687 161.94 17.3913 161.373C16.5395 160.761 15.5283 160.409 14.48 160.359C13.898 160.369 13.3174 160.418 12.742 160.506L11.0039 160.757C10.1593 160.875 9.35245 161.182 8.64474 161.657C7.93703 162.131 7.34703 162.76 6.91952 163.496C6.44198 164.279 6.0791 165.125 5.84192 166.01C5.58979 166.963 5.46415 167.945 5.46824 168.931L5.66812 170.768C6.05272 173.005 7.05482 175.091 8.56197 176.792C10.2189 178.82 12.6261 179.834 15.7836 179.834C16.452 179.835 17.1188 179.768 17.7736 179.634C18.408 179.496 18.9034 179.4 19.2684 179.331C20.3857 179.154 21.4439 178.711 22.3534 178.04L23.7265 176.948C24.3435 176.454 24.8823 175.986 25.3429 175.561C26.1032 174.808 26.9844 174.187 27.9499 173.723L29.3925 173.524C30.2588 173.492 31.1025 173.804 31.7389 174.391C32.0288 174.674 32.2559 175.015 32.4056 175.391C32.5553 175.767 32.6242 176.171 32.6079 176.575C32.6079 177.771 31.9272 178.898 30.5657 179.955L28.4714 181.298L26.4291 182.538L24.3348 183.405C22.919 183.951 21.4672 184.4 19.9897 184.748C18.1241 185.063 16.2324 185.196 14.341 185.147C12.3681 185.159 10.4233 184.679 8.68364 183.751C6.93999 182.823 5.40513 181.549 4.17339 180.007C2.90693 178.419 1.88475 176.652 1.14049 174.763C0.781981 173.791 0.491608 172.795 0.271467 171.782C0.0865051 170.849 -0.0037474 169.899 0.00207068 168.948C-0.0477776 165.978 0.803418 163.063 2.44403 160.584C3.28672 159.353 4.36851 158.303 5.62535 157.496C6.8822 156.689 8.28856 156.142 9.76123 155.887C11.3061 155.593 12.8729 155.427 14.4453 155.393C17.9851 155.393 20.485 156.32 21.945 158.175Z" fill="black"/>
<path fill-rule="evenodd" clip-rule="evenodd" d="M722.884 156.736C723.599 157.937 723.977 159.308 723.979 160.705C723.855 163.272 723.465 165.82 722.814 168.306C722.198 170.615 721.805 172.978 721.641 175.362L721.989 177.294L722.336 179.53C722.346 179.841 722.279 180.148 722.141 180.426C722.003 180.705 721.799 180.945 721.546 181.125C720.939 181.542 720.236 181.799 719.503 181.87C717.041 181.668 715.813 179.828 715.819 176.35C715.969 174.045 716.3 171.756 716.809 169.503C717.28 167.276 717.571 165.015 717.678 162.742L717.574 159.362C717.56 158.799 717.601 158.236 717.696 157.681C717.802 157.276 717.998 156.9 718.269 156.58C718.548 156.262 718.893 156.009 719.281 155.838C719.668 155.668 720.088 155.583 720.511 155.592C720.973 155.555 721.436 155.642 721.853 155.843C722.27 156.044 722.626 156.352 722.884 156.736Z" fill="black"/>
<path fill-rule="evenodd" clip-rule="evenodd" d="M282.366 156.736C283.081 157.937 283.459 159.308 283.461 160.705C283.333 163.272 282.943 165.819 282.296 168.306C281.68 170.615 281.288 172.978 281.123 175.362L281.471 177.294L281.818 179.53C281.828 179.841 281.761 180.148 281.623 180.426C281.485 180.705 281.281 180.945 281.028 181.125C280.421 181.542 279.718 181.799 278.985 181.87C276.529 181.668 275.298 179.828 275.292 176.35C275.447 174.045 275.781 171.756 276.291 169.503C276.762 167.276 277.053 165.015 277.16 162.742L277.056 159.362C277.042 158.796 277.083 158.23 277.178 157.672C277.284 157.27 277.48 156.896 277.751 156.58C278.03 156.262 278.375 156.009 278.763 155.838C279.15 155.668 279.57 155.583 279.993 155.592C280.455 155.555 280.918 155.642 281.335 155.843C281.752 156.044 282.108 156.352 282.366 156.736Z" fill="black"/>
<path fill-rule="evenodd" clip-rule="evenodd" d="M101.426 157.36C100.797 158.594 99.9761 159.72 98.9928 160.697C98.1794 161.619 97.0708 162.231 95.8557 162.43C95.0909 162.526 94.6043 161.954 94.4044 160.697C94.3988 160.359 94.4748 160.026 94.6261 159.724C94.7774 159.422 94.9995 159.161 95.2734 158.963C96.6696 158.386 97.4692 157.054 97.6719 154.968C97.2639 155.227 96.8044 155.396 96.3249 155.462C94.5347 155.228 93.4658 153.728 93.1356 151.128C93.1532 149.925 93.6035 148.769 94.4044 147.869C94.7727 147.397 95.2445 147.014 95.7837 146.752C96.323 146.489 96.9153 146.352 97.5155 146.353C98.247 146.332 98.969 146.521 99.596 146.897C100.223 147.274 100.728 147.822 101.052 148.476C101.859 149.913 102.273 151.536 102.252 153.182C102.25 154.615 101.97 156.034 101.426 157.36Z" fill="black"/>
<path fill-rule="evenodd" clip-rule="evenodd" d="M44.9481 156.736C45.666 157.937 46.0472 159.308 46.0518 160.706C45.9246 163.273 45.5314 165.82 44.8786 168.307C44.2626 170.615 43.8697 172.978 43.7054 175.362L44.053 177.294L44.4006 179.53C44.4094 179.836 44.3435 180.139 44.2088 180.414C44.0741 180.689 43.8745 180.927 43.6272 181.108C43.0227 181.527 42.3186 181.781 41.585 181.845C39.1285 181.654 37.9003 179.816 37.9003 176.332C38.051 174.025 38.3822 171.733 38.891 169.477C39.362 167.253 39.6526 164.995 39.76 162.725L39.6558 159.345C39.6418 158.779 39.6825 158.213 39.7774 157.655C39.884 157.252 40.0801 156.879 40.351 156.563C40.6298 156.245 40.975 155.992 41.3623 155.821C41.7496 155.65 42.1697 155.566 42.5931 155.575C43.0536 155.543 43.5142 155.634 43.928 155.838C44.3418 156.042 44.6938 156.352 44.9481 156.736Z" fill="black"/>
<path fill-rule="evenodd" clip-rule="evenodd" d="M731.505 171.834V172.276C731.522 172.472 731.591 172.661 731.704 172.822C731.841 172.956 731.958 173.107 732.052 173.273C732.324 175.006 732.614 176.711 732.921 178.386C733.079 178.625 733.321 178.795 733.599 178.863L734.572 179.184C734.878 179.339 735.169 179.522 735.441 179.73L736.945 180.926C737.442 181.174 737.999 181.276 738.552 181.221H739.543C740.508 181.244 741.471 181.128 742.402 180.874C743.36 180.555 744.283 180.14 745.157 179.634C745.36 179.536 745.583 179.483 745.809 179.478C746.148 179.478 746.347 179.374 746.408 179.262C746.478 179.141 746.514 179.003 746.513 178.863C746.497 178.739 746.497 178.614 746.513 178.49C746.773 178.23 747.065 178.003 747.382 177.814C747.637 177.658 747.881 177.485 748.112 177.294C748.197 177.174 748.235 177.025 748.216 176.878C748.204 176.735 748.219 176.591 748.259 176.454C748.773 175.603 749.187 174.695 749.493 173.75C749.778 172.79 749.918 171.794 749.91 170.794C749.902 170.246 749.779 169.707 749.548 169.209C749.318 168.712 748.985 168.269 748.572 167.908C747.78 167.179 746.845 166.621 745.826 166.27C745.315 166.109 744.869 165.786 744.557 165.351C744.282 164.948 744.136 164.47 744.14 163.982C744.142 163.341 744.38 162.724 744.809 162.248C745.021 161.997 745.288 161.796 745.589 161.663C745.89 161.529 746.218 161.466 746.547 161.477C746.843 161.483 747.136 161.532 747.416 161.624C749.375 162.236 751.13 163.369 752.491 164.9C754.022 166.493 754.878 168.614 754.881 170.82C754.923 173.72 754.11 176.568 752.544 179.01C752.387 179.478 752.239 179.92 752.109 180.354C751.675 180.649 751.24 180.935 750.806 181.221C750.821 181.522 750.752 181.823 750.606 182.087C750.211 182.559 749.719 182.941 749.163 183.205C748.468 183.587 747.955 183.855 747.634 184.02C746.419 184.734 745.132 185.315 743.793 185.753C742.437 186.14 741.031 186.325 739.621 186.299C738.607 186.313 737.592 186.246 736.588 186.1C735.775 185.971 734.997 185.676 734.303 185.233C733.712 184.739 733.112 184.254 732.513 183.795C731.789 183.447 731.092 183.047 730.427 182.599C729.705 182.184 729.092 181.605 728.637 180.909C728.248 180.006 728.03 179.039 727.994 178.057C727.956 177.039 727.808 176.027 727.55 175.041C727.449 174.685 727.291 174.349 727.081 174.044C726.844 173.69 726.714 173.274 726.708 172.848V171.834C726.637 171.473 726.637 171.103 726.708 170.742L727.003 169.009L725.465 169.208C725.098 169.272 724.721 169.248 724.365 169.136C724.01 169.025 723.686 168.829 723.423 168.567C723.168 168.322 722.966 168.029 722.828 167.704C722.691 167.379 722.621 167.03 722.623 166.677C722.601 166.075 722.795 165.485 723.171 165.013C723.39 164.77 723.658 164.575 723.957 164.442C724.257 164.309 724.581 164.241 724.909 164.242L728.645 163.843L729.141 162.5C729.306 161.312 729.488 160.099 729.688 158.877C729.885 158.45 730.146 158.055 730.462 157.707C730.854 157.182 731.111 156.569 731.209 155.921C731.448 154.913 731.789 153.932 732.226 152.992C732.628 152.063 733.114 151.172 733.677 150.331C734.767 148.633 736.129 147.125 737.709 145.867C739.45 144.519 741.589 143.785 743.793 143.779C744.666 143.719 745.541 143.889 746.328 144.272C747.115 144.656 747.787 145.239 748.277 145.963C749.242 147.724 749.688 149.723 749.563 151.726C749.563 154.474 749.137 156.441 748.268 157.637C747.225 158.764 746.365 159.735 745.661 160.567C744.957 161.399 744.279 162.205 743.61 163.002L742.506 163.947C742.142 164.259 741.759 164.548 741.359 164.814C740.351 165.507 739.621 166.036 739.1 166.4C738.355 166.962 737.503 167.369 736.597 167.596C735.997 167.596 735.415 167.509 734.859 167.449C734.028 167.776 733.174 168.043 732.304 168.246C731.981 169.302 731.731 170.379 731.557 171.47V171.869L731.505 171.834ZM733.946 162.647H735.902C736.498 162.521 737.043 162.219 737.466 161.78C737.892 161.39 738.335 160.974 738.813 160.541C739.158 160.343 739.481 160.111 739.778 159.847L740.525 159.18C740.774 158.949 740.995 158.69 741.185 158.409C741.411 158.079 741.672 157.715 741.941 157.317C742.506 156.719 743.071 156.103 743.68 155.479C744.431 154.388 744.787 153.073 744.688 151.752V149.863C744.688 149.135 744.383 148.771 743.819 148.771C742.474 148.763 741.175 149.258 740.177 150.158C739.249 151.039 738.445 152.042 737.788 153.139C737.327 153.885 736.929 154.668 736.597 155.479C736.38 155.958 736.211 156.458 736.093 156.97C735.964 157.74 735.696 158.48 735.302 159.154C734.865 159.675 734.51 160.26 734.251 160.887C734.141 161.165 734.074 161.457 734.051 161.754C733.964 161.98 733.946 162.309 733.946 162.647Z" fill="black"/>
<path fill-rule="evenodd" clip-rule="evenodd" d="M705.304 167.561C705.304 166.634 705.304 165.966 705.356 165.568C705.408 165.169 705.503 164.164 705.703 162.578C705.798 161.654 705.946 160.737 706.146 159.83C706.381 158.738 706.572 157.767 706.746 156.935C706.832 156.267 707.156 155.652 707.659 155.202C708.098 154.855 708.645 154.671 709.205 154.682C709.849 154.677 710.469 154.916 710.944 155.349C711.188 155.567 711.382 155.834 711.514 156.133C711.646 156.432 711.712 156.756 711.708 157.083C711.715 157.28 711.697 157.478 711.656 157.672C711.361 159.076 711.178 159.969 711.109 160.376C710.909 161.433 710.761 162.37 710.665 163.193C710.57 164.016 710.483 164.805 710.413 165.611C710.344 166.417 710.309 167.24 710.309 168.098L710.961 168.298C711.486 168.432 711.949 168.74 712.274 169.172C712.6 169.603 712.768 170.133 712.751 170.673C712.756 171.008 712.693 171.341 712.564 171.651C712.436 171.961 712.245 172.242 712.004 172.475C711.764 172.727 711.469 172.92 711.141 173.037C710.814 173.155 710.463 173.194 710.118 173.151C710.118 174.243 710.057 175.44 709.935 176.766C709.814 178.092 709.666 179.461 709.466 180.874V182.061C709.493 182.402 709.444 182.745 709.324 183.065C709.204 183.386 709.015 183.676 708.771 183.916C708.272 184.343 707.629 184.566 706.972 184.54C706.331 184.548 705.711 184.316 705.234 183.89C704.979 183.661 704.78 183.377 704.651 183.061C704.521 182.744 704.465 182.402 704.487 182.061V180.683C704.626 179.591 704.773 178.395 704.921 177.095C705.07 175.574 705.14 174.047 705.13 172.519H703.731L702.931 172.354C702.438 172.226 701.935 172.142 701.428 172.103C700.802 172.051 700.107 172.025 699.333 172.025L692.138 172.718C692.142 175.7 691.874 178.677 691.338 181.611C691.242 182.204 690.933 182.743 690.469 183.127C690.035 183.477 689.489 183.661 688.931 183.647C688.288 183.643 687.669 183.403 687.193 182.971C686.945 182.757 686.747 182.49 686.615 182.19C686.483 181.891 686.419 181.565 686.428 181.238C686.405 181.074 686.405 180.908 686.428 180.744C686.709 179.181 686.901 177.604 687.002 176.02C687.089 174.633 687.132 172.73 687.132 170.309V168.619C687.132 166.174 687.08 164.38 686.976 163.254C686.813 161.764 686.549 160.287 686.185 158.833C686.13 158.606 686.095 158.374 686.081 158.14C686.065 157.813 686.124 157.487 686.253 157.187C686.383 156.887 686.579 156.62 686.828 156.407C687.325 155.98 687.963 155.752 688.618 155.765C689.143 155.752 689.657 155.907 690.087 156.207C690.533 156.555 690.84 157.05 690.956 157.603C691.404 159.169 691.726 160.769 691.92 162.387C692.068 163.826 692.146 165.62 692.146 167.734L698.916 167.084C700.15 167.084 701.115 167.084 701.801 167.162C702.557 167.225 703.305 167.358 704.035 167.561H705.304Z" fill="black"/>
<path fill-rule="evenodd" clip-rule="evenodd" d="M665.067 157.707C664.963 158.435 664.859 159.483 664.737 160.835C664.616 162.187 664.563 163.505 664.563 164.762C664.51 168.179 664.923 171.587 665.789 174.893C666.6 177.783 667.721 179.357 669.152 179.617C669.464 179.651 669.777 179.665 670.09 179.66C670.875 179.663 671.648 179.474 672.343 179.112C673.038 178.749 673.634 178.224 674.079 177.58C675.272 176.057 676.157 174.317 676.686 172.458L677.13 168.237C677.12 167.74 677.138 167.242 677.182 166.746C677.182 166.486 677.364 165.637 677.634 164.216C677.729 163.748 678.407 163.522 679.676 163.522C680.379 163.506 681.081 163.588 681.762 163.765C682.326 163.938 682.631 164.198 682.631 164.562L681.831 172.657L681.379 179.513C681.379 180.744 681.423 181.862 681.51 182.893C681.596 183.925 681.701 184.965 681.831 186.022C681.831 186.351 681.214 186.516 679.989 186.516C678.251 186.516 677.321 186.351 677.199 186.022C676.798 184.399 676.631 182.726 676.704 181.056C675.845 182.264 674.718 183.257 673.41 183.959C672.335 184.515 671.145 184.811 669.934 184.826H668.587C662.347 184.063 659.228 177.754 659.228 165.897C659.222 164.024 659.321 162.152 659.523 160.289L659.827 157.689C660.218 156.528 661.235 155.956 662.86 155.956C664.346 155.886 665.067 156.502 665.067 157.707Z" fill="black"/>
<path fill-rule="evenodd" clip-rule="evenodd" d="M645.445 161.702C645.207 161.303 644.839 160.997 644.402 160.835C643.911 160.649 643.389 160.558 642.864 160.567C642.09 160.576 641.328 160.754 640.63 161.087C639.889 161.42 639.203 161.864 638.597 162.404C637.917 163.06 637.316 163.793 636.807 164.588C636.293 165.379 635.939 166.262 635.764 167.188C635.688 167.891 635.361 168.543 634.843 169.026C634.398 169.376 633.845 169.563 633.279 169.555C632.638 169.565 632.017 169.332 631.541 168.904C631.247 168.619 631.03 168.265 630.907 167.875C630.784 167.484 630.76 167.07 630.837 166.668C631.029 165.256 631.464 163.886 632.123 162.621C633.02 161.215 634.085 159.923 635.295 158.773C636.33 157.852 637.503 157.098 638.771 156.537C640.036 155.97 641.407 155.674 642.794 155.67C644.445 155.61 646.082 155.977 647.548 156.736C648.997 157.669 650.123 159.025 650.772 160.619C650.907 160.949 650.972 161.303 650.963 161.659V163.054C650.947 164.602 650.653 166.134 650.094 167.578C649.611 169.015 648.792 170.317 647.704 171.375L646.914 172.163C647.735 172.917 648.433 173.794 648.982 174.763H651.18C651.525 174.736 651.871 174.784 652.196 174.904C652.52 175.024 652.814 175.212 653.058 175.457C653.483 175.953 653.707 176.59 653.683 177.242C653.689 177.876 653.467 178.491 653.058 178.976C652.843 179.222 652.575 179.417 652.274 179.546C651.973 179.675 651.647 179.735 651.32 179.721H651.024V179.964C651.058 183.294 650.586 186.611 649.625 189.801C649.313 190.785 648.866 191.722 648.295 192.583C647.633 193.538 646.833 194.39 645.923 195.114C643.892 196.946 641.258 197.973 638.519 198C636.558 197.962 634.681 197.199 633.252 195.859C632.508 195.281 631.903 194.545 631.48 193.703C631.058 192.862 630.829 191.938 630.811 190.997C630.81 189.629 631.088 188.276 631.627 187.019C632.534 185.185 633.705 183.495 635.104 182.001C636.229 180.771 637.532 179.717 638.971 178.872C640.926 177.814 642.447 176.982 643.437 176.393L644.037 176.09L643.246 175.544C642.044 176.314 640.787 176.995 639.483 177.58C639.291 177.681 639.082 177.749 638.866 177.78C638.694 177.81 638.52 177.827 638.345 177.832C638.016 177.842 637.688 177.778 637.388 177.644C637.087 177.51 636.82 177.311 636.607 177.06C636.185 176.58 635.951 175.965 635.946 175.327C635.934 174.859 636.065 174.399 636.321 174.008C636.577 173.616 636.947 173.311 637.38 173.134C638.648 172.549 639.865 171.862 641.022 171.08C642.11 170.299 643.115 169.407 644.02 168.419C644.581 167.826 645.058 167.158 645.436 166.434C645.806 165.728 646 164.943 646.001 164.146C645.988 163.334 645.786 162.536 645.41 161.815L645.445 161.702ZM645.94 180.622L639.909 184.003C638.807 184.918 637.807 185.949 636.928 187.079C636.162 188.209 635.762 189.546 635.781 190.91C635.792 191.204 635.877 191.49 636.029 191.742C636.181 191.993 636.395 192.202 636.65 192.349C637.18 192.73 637.814 192.939 638.467 192.947C639.718 192.967 640.948 192.62 642.004 191.95C643.339 191.081 644.312 189.756 644.741 188.224C645.552 185.772 645.957 183.204 645.94 180.622Z" fill="black"/>
<path fill-rule="evenodd" clip-rule="evenodd" d="M625.97 184.575C625.327 185.151 624.488 185.461 623.624 185.441C623.129 185.463 622.641 185.323 622.233 185.043C621.796 184.685 621.453 184.227 621.234 183.708L620.643 182.261C617.949 184.843 614.345 186.135 609.832 186.135C607.594 186.188 605.381 185.66 603.41 184.601C601.387 183.193 599.716 181.339 598.526 179.184C597.877 178.036 597.319 176.839 596.858 175.604C596.495 174.654 596.301 173.648 596.284 172.631C596.312 171.926 596.48 171.234 596.779 170.595C597.297 169.637 597.739 168.64 598.1 167.613C598.535 166.448 599.119 165.344 599.838 164.328C600.786 163.179 601.945 162.22 603.254 161.503C605.326 160.314 607.685 159.715 610.075 159.769H611.518C611.959 159.313 612.534 159.01 613.161 158.903C614.29 158.807 615.768 159.414 617.645 160.74L618.044 159.102C618.09 158.831 618.191 158.572 618.34 158.341C618.489 158.11 618.685 157.912 618.913 157.759C619.457 157.434 620.079 157.263 620.712 157.265C621.51 157.258 622.29 157.497 622.946 157.949C623.271 158.105 623.543 158.352 623.73 158.66C623.916 158.968 624.009 159.323 623.997 159.683C624 160.135 623.95 160.585 623.849 161.026C623.745 161.433 623.667 161.754 623.597 161.979L623.198 164.19C623.442 165.775 623.826 167.335 624.345 168.852C624.909 170.45 625.246 172.119 625.344 173.81C625.271 175.086 625.12 176.357 624.892 177.615L625.761 180.215C625.923 180.739 626.057 181.271 626.161 181.81C626.259 182.353 626.309 182.904 626.309 183.457C626.359 183.881 626.254 184.308 626.013 184.661L625.97 184.575ZM618.644 176.774C619.131 175.77 619.372 174.665 619.348 173.55C619.239 171.368 618.714 169.227 617.801 167.24C617.764 167.001 617.643 166.783 617.46 166.625C617.278 166.466 617.044 166.377 616.802 166.374H616.202L615.159 166.625C614.251 166.23 613.379 165.758 612.552 165.212C611.661 164.581 610.61 164.212 609.519 164.146C608.045 164.156 606.604 164.576 605.357 165.36C604.072 166.099 603.093 167.269 602.593 168.662C602.375 169.197 602.083 169.699 601.724 170.153C601.48 170.512 601.274 170.895 601.107 171.297C600.989 171.613 600.93 171.947 600.933 172.285L601.133 173.151C602.558 178.976 605.38 181.891 609.598 181.896C611.596 181.879 613.545 181.276 615.203 180.163C616.648 179.381 617.842 178.206 618.644 176.774Z" fill="black"/>
<path fill-rule="evenodd" clip-rule="evenodd" d="M592.452 180.076C590.372 181.461 588.131 182.587 585.778 183.431C583.487 184.304 581.06 184.767 578.608 184.8C576.439 184.876 574.316 184.168 572.629 182.807C571.782 182.131 571.105 181.268 570.653 180.285C570.2 179.302 569.984 178.228 570.022 177.147C570.029 176.039 570.187 174.937 570.491 173.871C570.753 172.859 571.22 171.912 571.864 171.089C573.114 169.86 574.589 168.883 576.21 168.211C577.174 167.778 578.113 167.344 579.025 166.894C580.039 166.349 580.877 165.528 581.441 164.528C581.711 164.103 582.206 163.089 582.936 161.503C583.066 161.269 583.197 161.018 583.336 160.757C583.339 160.6 583.29 160.447 583.195 160.321C583.1 160.195 582.966 160.105 582.814 160.064C582.439 159.924 582.041 159.857 581.641 159.865C580.927 159.87 580.233 160.094 579.651 160.506C579.017 160.939 578.417 161.373 577.852 161.797C577.44 162.074 576.958 162.23 576.462 162.248C576.131 162.251 575.804 162.182 575.503 162.044C575.203 161.906 574.936 161.703 574.724 161.451C574.271 160.946 574.024 160.291 574.028 159.613C574.041 159.17 574.173 158.739 574.41 158.364C574.647 157.989 574.98 157.684 575.375 157.481C576.244 156.918 577.218 156.337 578.208 155.748C579.281 155.187 580.473 154.89 581.684 154.881C583.371 154.88 585.003 155.476 586.29 156.563C586.937 157.051 587.461 157.682 587.82 158.407C588.179 159.133 588.363 159.931 588.359 160.74C588.38 161.245 588.312 161.749 588.159 162.231C587.912 162.646 587.694 163.078 587.507 163.522C586.829 165.029 586.03 166.478 585.117 167.856C584.17 169.295 582.888 170.484 581.38 171.323C581.085 171.453 580.355 171.747 579.19 172.189C577.897 172.58 576.719 173.279 575.758 174.226C575.463 174.574 575.266 174.992 575.184 175.44C575.066 175.986 575.008 176.544 575.01 177.104C574.988 177.501 575.073 177.897 575.257 178.251C575.44 178.605 575.715 178.903 576.053 179.114C576.817 179.584 577.703 179.819 578.599 179.79C580.551 179.753 582.48 179.375 584.3 178.672C586.195 178.003 587.994 177.091 589.653 175.96C589.879 175.799 590.132 175.682 590.401 175.613C590.628 175.555 590.861 175.523 591.096 175.518C591.424 175.513 591.75 175.58 592.05 175.713C592.35 175.846 592.618 176.043 592.834 176.289C593.301 176.777 593.56 177.426 593.555 178.1C593.555 178.496 593.453 178.885 593.26 179.231C593.067 179.577 592.789 179.868 592.452 180.076Z" fill="black"/>
<path fill-rule="evenodd" clip-rule="evenodd" d="M566.998 184.575C566.359 185.152 565.522 185.462 564.66 185.441C564.163 185.463 563.672 185.323 563.261 185.043C562.825 184.687 562.485 184.228 562.27 183.708L561.671 182.261C558.983 184.843 555.379 186.135 550.86 186.135C548.622 186.187 546.409 185.659 544.438 184.601C542.417 183.19 540.747 181.337 539.554 179.184C538.905 178.036 538.347 176.839 537.886 175.604C537.523 174.654 537.329 173.648 537.312 172.631C537.337 171.925 537.508 171.231 537.816 170.595C538.33 169.635 538.771 168.638 539.137 167.613C539.551 166.447 540.121 165.342 540.832 164.328C541.776 163.178 542.932 162.219 544.238 161.503C546.311 160.315 548.67 159.716 551.06 159.769H552.503C552.948 159.315 553.526 159.011 554.154 158.903C555.275 158.807 556.761 159.414 558.629 160.74L559.029 159.102C559.075 158.831 559.176 158.572 559.325 158.341C559.475 158.11 559.669 157.912 559.898 157.759C560.439 157.435 561.058 157.264 561.688 157.265C562.488 157.258 563.271 157.497 563.93 157.949C564.253 158.108 564.523 158.355 564.708 158.663C564.893 158.97 564.985 159.324 564.973 159.683C564.98 160.135 564.93 160.586 564.825 161.026C564.73 161.433 564.643 161.754 564.573 161.98L564.182 164.19C564.418 165.775 564.799 167.336 565.321 168.853C565.889 170.449 566.226 172.118 566.32 173.81C566.251 175.087 566.1 176.358 565.868 177.615L566.737 180.215C566.9 180.738 567.031 181.271 567.128 181.81C567.234 182.352 567.286 182.904 567.285 183.457C567.336 183.882 567.228 184.311 566.981 184.661L566.998 184.575ZM559.681 176.774C560.16 175.768 560.398 174.664 560.376 173.55C560.271 171.367 559.746 169.225 558.829 167.24C558.794 167.002 558.675 166.784 558.494 166.625C558.312 166.467 558.08 166.377 557.838 166.374H557.221L556.179 166.625C555.269 166.232 554.397 165.76 553.571 165.212C552.677 164.581 551.624 164.212 550.53 164.146C549.056 164.157 547.615 164.577 546.367 165.36C545.087 166.104 544.109 167.273 543.604 168.662C543.388 169.198 543.095 169.7 542.735 170.153C542.492 170.514 542.282 170.897 542.109 171.297C541.991 171.613 541.932 171.948 541.935 172.285L542.135 173.151C543.56 178.976 546.382 181.891 550.599 181.896C552.598 181.882 554.548 181.279 556.205 180.163C557.663 179.386 558.869 178.211 559.681 176.774Z" fill="black"/>
<path d="M52.6563 1.54272H84.9059L136.291 122.795H100.427L91.6321 101.301H45.0697L36.449 122.795H1.27081L52.6563 1.54272ZM81.9685 75.3691L68.5247 41.1427L54.9245 75.3691H81.9685Z" fill="#FF0000"/>
<path d="M148.015 2.40939H209.924C225.097 2.40939 235.786 6.18825 242.86 13.2433C247.683 18.0535 250.62 24.4238 250.62 33.0216C250.62 46.9496 242.686 55.2094 231.997 59.8463C246.649 64.6652 255.965 72.9249 255.965 89.6004C255.965 110.245 239.062 122.795 210.263 122.795H148.015V2.40939ZM201.642 50.3905C211.818 50.3905 217.511 46.9236 217.511 39.5566C217.511 33.0216 212.34 29.2341 202.337 29.2341H180.612V50.3905H201.642ZM206.474 95.9621C216.65 95.9621 222.507 92.0099 222.507 84.6169C222.507 78.0819 217.337 73.783 206.126 73.783H180.603V95.9621H206.474Z" fill="#FF0000"/>
<path d="M271.312 2.40939H323.045C353.565 2.40939 373.223 18.0535 373.223 45.0602C373.223 73.4363 351.323 88.3958 321.316 88.3958H304.761V122.795H271.312V2.40939ZM320.629 62.2557C332.526 62.2557 339.748 56.0674 339.748 46.2649C339.748 35.9424 332.509 30.4388 320.438 30.4388H304.761V62.2557H320.629Z" fill="#FF0000"/>
<path d="M386.023 62.6025C386.023 28.0294 413.963 0 451.2 0C488.438 0 516.038 27.6914 516.038 62.6025C516.038 97.1756 488.108 125.205 450.861 125.205C413.615 125.205 386.023 97.5136 386.023 62.6025ZM481.903 62.6025C481.903 45.2683 469.319 30.1008 450.87 30.1008C432.62 30.1008 420.341 44.8869 420.341 62.6025C420.341 79.9367 432.933 95.1042 451.209 95.1042C469.693 95.1042 481.938 80.3181 481.938 62.6025H481.903Z" fill="#FF0000"/>
<path d="M531.368 2.40939H583.101C613.621 2.40939 633.279 18.0535 633.279 45.0602C633.279 73.4363 611.379 88.3958 581.372 88.3958H564.86V122.795H531.368V2.40939ZM580.685 62.2557C592.582 62.2557 599.804 56.0674 599.804 46.2649C599.804 35.9424 592.565 30.4388 580.494 30.4388H564.817V62.2557H580.685Z" fill="#FF0000"/>
<path d="M676.365 1.54272H708.615L760 122.795H724.135L715.384 101.301H668.778L660.158 122.795H625.005L676.365 1.54272ZM705.677 75.3691L692.233 41.1514L678.607 75.3691H705.677Z" fill="#FF0000"/>
</svg>
